# xmcd CD database file
#
# Track frame offsets:
#	150
#	17590
#	34288
#
# Disc length: 665 seconds
#
# Revision: 0
# Processed by: cddbd v1.5.1PL0 Copyright (c) Steve Scherf et al.
# Submitted via: CDex 1.51
#
DISCID=1b029703
DTITLE=ケイタク - 少しだけ…
DYEAR=1900
DGENRE=JPop
TTITLE0=少しだけ…
TTITLE1=ヒトリゴト
TTITLE2=WALTZ
EXTD=
EXTT0=
EXTT1=
EXTT2=
PLAYORDER=
